<svg width="65" height="30" viewBox="0 0 65 30" fill="none" xmlns="http://www.w3.org/2000/svg">
<g id="Group 22">
<path id="Line 3" d="M63.7841 16.0247C64.3364 16.0247 64.7841 15.5769 64.7841 15.0247C64.7841 14.4724 64.3364 14.0247 63.7841 14.0247L63.7841 16.0247ZM0.908203 16.0247L63.7841 16.0247L63.7841 14.0247L0.908203 14.0247L0.908203 16.0247Z" fill="#292929"/>
<path id="Vector 1" d="M63.5499 15.8091C64.1021 15.8196 64.5582 15.3804 64.5686 14.8282C64.579 14.276 64.1399 13.8199 63.5877 13.8095L63.5499 15.8091ZM45.3455 0.243689C45.6216 3.83372 47.8155 7.67233 51.0474 10.6126C54.2949 13.5671 58.6999 15.7176 63.5499 15.8091L63.5877 13.8095C59.3078 13.7288 55.3509 11.824 52.3933 9.13323C49.4201 6.42832 47.5659 3.03189 47.3396 0.0902957L45.3455 0.243689Z" fill="#292929"/>
<path id="Vector 2" d="M63.7653 14.0248C64.3175 14.0144 64.7735 14.4536 64.784 15.0058C64.7944 15.558 64.3552 16.0141 63.803 16.0245L63.7653 14.0248ZM45.5608 29.5903C45.837 26.0003 48.0309 22.1617 51.2627 19.2214C54.5102 16.2669 58.9152 14.1163 63.7653 14.0248L63.803 16.0245C59.5231 16.1052 55.5662 18.01 52.6086 20.7007C49.6355 23.4057 47.7812 26.8021 47.5549 29.7437L45.5608 29.5903Z" fill="#292929"/>
</g>
</svg>
