<svg width="400" height="250" viewBox="0 0 400 250" fill="none" xmlns="http://www.w3.org/2000/svg">
<g clip-path="url(#clip0_428_145)">
<path fill-rule="evenodd" clip-rule="evenodd" d="M35.5518 83V102.003L50.9656 83H35.5518Z" fill="#52AE32"/>
<path fill-rule="evenodd" clip-rule="evenodd" d="M2.35632 92.0401C3.36038 90.3482 4.65643 88.8489 6.18391 87.6123L7.4023 86.7821C8.48506 86.1741 9.64508 85.7164 10.8506 85.4215C11.6097 85.2827 12.3781 85.2017 13.1494 85.1793C14.1733 85.2113 15.1907 85.3543 16.1839 85.6059C16.8993 85.8435 17.5982 86.1285 18.2759 86.4592C19.7731 87.2842 21.1183 88.3606 22.2529 89.6417L23.1609 90.7948C24.4344 92.6717 25.3862 94.7489 25.977 96.9406L26.3218 98.4742C26.3218 98.7164 26.4023 98.9585 26.4368 99.2007V83H0V99.2353C0.327323 97.2258 0.882656 95.2605 1.65517 93.3777L2.35632 92.0401Z" fill="#52AE32"/>
<path fill-rule="evenodd" clip-rule="evenodd" d="M61.9886 85.6289L35.5518 118.215V125.664C35.5518 125.433 35.6208 125.191 35.6668 124.949L36.0116 123.415C36.5974 121.222 37.5496 119.144 38.8277 117.269L39.7357 116.116C40.703 115.024 41.8217 114.076 43.0576 113.303C43.7085 112.94 44.3801 112.617 45.0691 112.334C46.534 111.859 48.0706 111.644 49.6093 111.7L51.1265 111.93C52.3354 112.22 53.4966 112.682 54.5748 113.303C55.1793 113.677 55.7625 114.085 56.3219 114.525C57.9684 116.001 59.3149 117.783 60.2875 119.771L60.8852 121.155C61.3712 122.626 61.7402 124.134 61.9886 125.664V85.6289Z" fill="#52AE32"/>
<path fill-rule="evenodd" clip-rule="evenodd" d="M48.8162 115.517C43.5403 115.517 39.23 121.536 39.23 128.927C39.23 136.318 43.5403 142.349 48.8162 142.349C54.0921 142.349 58.4139 136.318 58.4139 128.927C58.4139 121.536 54.1036 115.517 48.8162 115.517V115.517ZM48.8162 139.57C45.0921 139.57 42.0576 134.796 42.0576 128.927C42.0576 123.058 45.0921 118.296 48.8162 118.296C52.5403 118.296 55.5978 123.069 55.5978 128.927C55.5978 134.784 52.5518 139.57 48.8162 139.57Z" fill="#52AE32"/>
<path fill-rule="evenodd" clip-rule="evenodd" d="M36.0114 134.507L35.6321 132.962C35.6321 132.72 35.5516 132.489 35.5171 132.247V148.39H61.9539V132.247C61.6287 134.227 61.0731 136.162 60.2987 138.012L59.5861 139.327C58.5787 141 57.2872 142.483 55.77 143.709L54.5516 144.539C53.4684 145.146 52.3085 145.604 51.1033 145.899C50.3441 146.037 49.5757 146.118 48.8045 146.142C47.784 146.115 46.7698 145.971 45.7815 145.715C45.065 145.515 44.3623 145.269 43.6781 144.977C42.194 144.152 40.8607 143.08 39.7355 141.806L38.8275 140.653C37.5484 138.779 36.5962 136.701 36.0114 134.507V134.507Z" fill="#52AE32"/>
<path fill-rule="evenodd" clip-rule="evenodd" d="M26.4368 105.843C26.4368 106.073 26.3678 106.316 26.3218 106.558L25.977 108.091C25.3885 110.284 24.4365 112.361 23.1609 114.237L22.2529 115.39C21.2783 116.483 20.1563 117.434 18.9195 118.215C18.2671 118.571 17.5956 118.891 16.908 119.172C15.4529 119.655 13.9218 119.866 12.3908 119.795L10.8736 119.587C9.66775 119.288 8.50784 118.826 7.42525 118.215C6.80848 117.822 6.21372 117.394 5.64364 116.935C3.99721 115.459 2.65068 113.678 1.67812 111.689C0.899662 109.84 0.344007 107.905 0.0229492 105.923V145.82L26.4368 113.245V105.843Z" fill="#52AE32"/>
<path fill-rule="evenodd" clip-rule="evenodd" d="M13.1607 89.1113C7.88481 89.1113 3.57446 95.1304 3.57446 102.522C3.57446 109.913 7.88481 115.92 13.1607 115.92C18.4366 115.92 22.7469 109.901 22.7469 102.522C22.7469 95.1419 18.4481 89.1113 13.1607 89.1113ZM13.1607 113.153C9.43653 113.153 6.39055 108.379 6.39055 102.522C6.39055 96.664 9.43653 91.8787 13.1607 91.8787C16.8848 91.8787 19.9308 96.664 19.9308 102.522C19.9308 108.379 16.8963 113.153 13.1607 113.153V113.153Z" fill="#52AE32"/>
<path fill-rule="evenodd" clip-rule="evenodd" d="M26.4367 129.457L11.0229 148.448H26.4367V129.457Z" fill="#52AE32"/>
<path fill-rule="evenodd" clip-rule="evenodd" d="M61.2182 83H53.7929L0.792969 148.448H8.11481L61.2182 83Z" fill="#52AE32"/>
<path d="M33.2755 143.951H28.7356V148.459H33.2755V143.951Z" fill="#52AE32"/>
<path fill-rule="evenodd" clip-rule="evenodd" d="M64.2759 143.951V148.448C65.7483 148.448 67.1604 149.035 68.2015 150.079C69.2427 151.124 69.8276 152.54 69.8276 154.017C69.8276 155.495 69.2427 156.911 68.2015 157.956C67.1604 159 65.7483 159.587 64.2759 159.587C61.977 159.587 59.908 159.068 55.5747 158.007L28.5747 151.365C13.7011 147.699 0.0574713 151.85 0 161.547H4.5977C4.5977 157.938 11.5517 155.551 26.4368 159.241L53.8276 166.021C60.2414 167.601 65.4942 167.174 69.2644 165.41C71.5661 164.297 73.4205 162.429 74.5216 160.116C75.6226 157.803 75.9043 155.182 75.3203 152.687C74.7362 150.192 73.3213 147.971 71.3092 146.391C69.297 144.811 66.8079 143.967 64.2529 143.997L64.2759 143.951Z" fill="#52AE32"/>
<path d="M233.793 132.212H220.506V138.45H233.793V132.212Z" fill="#52AE32"/>
<path d="M173.046 121.963H180.184V148.484H187.23V121.963H194.368V115.759H173.046V121.963ZM163.218 128.074H150.701V115.759H143.678V148.449H150.724V134.278H163.218V148.449H170.264V115.759H163.218V128.074ZM113.793 115.759H106.805V142.28H95.1035V115.759H88.0576V148.449H111.046V155.644H117.609V142.245H113.851L113.793 115.759ZM330.046 148.449H348.517V142.245H337.092V134.416H348.034V128.213H337.092V121.963H348.517V115.759H330.046V148.449ZM320.471 130.83C320.984 130.459 321.444 130.021 321.839 129.527C322.886 128.17 323.434 126.492 323.391 124.776C323.425 123.462 323.163 122.157 322.623 120.959C322.084 119.761 321.281 118.701 320.276 117.858C317.552 115.748 314.023 115.771 312.23 115.771H303.954V148.449H315.046C318.056 148.631 321.024 147.677 323.368 145.774C324.292 144.911 325.024 143.862 325.516 142.696C326.007 141.529 326.246 140.271 326.218 139.005C326.26 137.849 326.068 136.695 325.653 135.615C325.238 134.535 324.609 133.551 323.805 132.721C322.866 131.824 321.721 131.175 320.471 130.83V130.83ZM311.011 121.675H312.391C313.475 121.627 314.547 121.917 315.46 122.505C315.882 122.822 316.218 123.241 316.437 123.722C316.656 124.204 316.751 124.733 316.713 125.261C316.742 126.006 316.555 126.743 316.172 127.382C315.69 128.07 314.975 128.557 314.161 128.754C313.568 128.907 312.957 128.981 312.345 128.974H311.011V121.675ZM318.632 140.216C318.334 140.854 317.849 141.385 317.241 141.738C315.99 142.343 314.605 142.617 313.218 142.534H310.988V134.612H312.839C314.217 134.517 315.599 134.714 316.897 135.189C317.631 135.497 318.236 136.051 318.609 136.757C318.854 137.276 318.979 137.843 318.977 138.417C318.99 139.035 318.873 139.648 318.632 140.216V140.216ZM120.598 148.449H139.08V142.245H127.655V134.416H138.598V128.213H127.655V121.963H139.08V115.759H120.598V148.449ZM378.724 115.759V121.963H385.851V148.484H392.897V121.963H400V115.759H378.724ZM215.425 118.296C214.317 117.293 212.978 116.58 211.529 116.221C209.968 115.865 208.369 115.71 206.77 115.759H197.115V148.449H204.161V136.665H207.724C211.471 136.665 214.218 135.581 216.069 133.724C217.896 131.696 218.879 129.043 218.816 126.31C218.852 124.795 218.563 123.29 217.968 121.898C217.373 120.505 216.486 119.257 215.368 118.238L215.425 118.296ZM210.034 129.539C208.914 130.267 207.581 130.592 206.253 130.461H204.161V121.963H205.874C207.307 121.84 208.744 122.162 209.989 122.885C210.497 123.262 210.907 123.756 211.184 124.327C211.46 124.897 211.594 125.526 211.575 126.16C211.586 126.803 211.454 127.44 211.187 128.025C210.92 128.609 210.527 129.127 210.034 129.539V129.539ZM368.46 115.044C364.064 114.845 359.768 116.395 356.506 119.357C354.798 121.006 353.453 122.993 352.554 125.193C351.656 127.393 351.224 129.757 351.287 132.133C351.245 134.395 351.659 136.641 352.507 138.738C353.354 140.834 354.616 142.736 356.217 144.329C357.818 145.922 359.724 147.173 361.82 148.006C363.917 148.839 366.16 149.237 368.414 149.175C371.212 149.217 373.978 148.559 376.46 147.261L376.69 147.134V138.452L375.943 139.34C375.077 140.386 373.991 141.227 372.763 141.804C371.535 142.38 370.195 142.676 368.839 142.672C366.231 142.688 363.709 141.735 361.759 139.997C360.693 139.011 359.852 137.807 359.293 136.466C358.733 135.125 358.469 133.678 358.517 132.225C358.49 129.479 359.472 126.819 361.276 124.753C362.197 123.722 363.329 122.901 364.594 122.346C365.859 121.791 367.229 121.515 368.609 121.536C370.007 121.552 371.385 121.869 372.651 122.466C373.916 123.063 375.039 123.926 375.943 124.995L376.69 125.872V117.166L376.471 117.051C374.015 115.708 371.257 115.017 368.46 115.044V115.044ZM244.448 136.342V115.759H237.402V148.449H242.816L259.195 127.774V148.449H266.241V115.759H260.747L244.448 136.342ZM291.379 128.074H278.828V115.759H271.782V148.449H278.828V134.278H291.379V148.449H298.425V115.759H291.379V128.074Z" fill="#52AE32"/>
<path d="M103.448 95.2571C101.591 93.743 99.2403 92.9746 96.8507 93.1009H93.8277V88.1657H103.448V83.0576H88.0576V109.186H96.8392C98.1426 109.216 99.4424 109.037 100.69 108.656C102.204 108.19 103.522 107.233 104.437 105.935C105.404 104.541 105.918 102.882 105.908 101.184C105.943 100.077 105.741 98.976 105.317 97.9538C104.892 96.9317 104.255 96.0122 103.448 95.2571V95.2571ZM99.3104 103.098C98.3056 103.863 97.0473 104.214 95.7932 104.078H93.8277V98.1975H95.8162C96.4285 98.1293 97.0481 98.1828 97.6398 98.3549C98.2315 98.527 98.7835 98.8144 99.2645 99.2006C99.5177 99.4689 99.7137 99.7863 99.8402 100.133C99.9667 100.48 100.021 100.85 100 101.219C100.015 101.567 99.9562 101.915 99.8274 102.239C99.6986 102.563 99.5028 102.855 99.253 103.098H99.3104ZM170.736 95.1764L181.736 83.0576H174.368L165.747 93.0202V83.0576H160V109.186H165.747V98.1744L165.839 98.0821L174.621 109.186H182.241L170.736 95.1764ZM117.057 83.0576L106 109.186H112.264L114.483 103.882H124.069L126.299 109.186H132.517L121.77 83.0576H117.057ZM116.391 99.0046L119.368 91.5212L122.287 99.0046H116.391ZM149.885 92.8357H140.103V83.0576H134.356V109.186H140.103V97.9899H149.885V109.232H155.632V83.0576H149.885V92.8357Z" fill="#52AE32"/>
</g>
<defs>
<clipPath id="clip0_428_145">
<rect width="400" height="250" fill="white"/>
</clipPath>
</defs>
</svg>
