<svg width="400" height="250" fill="none" xmlns="http://www.w3.org/2000/svg"><path fill-rule="evenodd" clip-rule="evenodd" d="M0 131.547c0 12.486 7.01 25.077 22.706 25.077 15.682 0 22.706-12.591 22.706-25.077 0-8.529-2.88-18.35-7.688-26.282-4.675-7.66-10.292-12.217-15.018-12.217-4.74 0-10.36 4.556-14.994 12.217C2.882 113.197 0 123.018 0 131.547zm161.21-19.767h-15.894V96.454h48.818v15.326H178.24v41.438h-17.03V111.78zm69.252 0h24.978V96.454h-24.976c-22.95 0-35.202 11.409-35.202 28.382s12.252 28.382 35.202 28.382h24.976v-15.326h-24.978c-10.619 0-17.603-3.796-17.603-13.056s6.984-13.056 17.603-13.056zm-128.859 18.556l9.078-33.883h30.094v56.765h-17.03v-46.201l-12.379 46.201H91.84l-12.371-46.172v46.172h-17.03V96.454h30.085l9.079 33.882zm196.246-17.429h-6.005v5.553h6.005c1.521 0 2.427-.782 2.427-2.222v-1.027c0-1.482-.782-2.304-2.427-2.304zm1.521 11.928h-15.547V96.454h22.868v6.787h-14.847v3.701h7.526c6.294 0 9.337 3.127 9.337 8.638 0 5.8-3.043 9.255-9.337 9.255zm27.846-11.599h-6.336l3.168-10.489 3.168 10.489zm12.175 11.6l-8.763-28.382h-11.926l-8.763 28.382h7.486l1.605-5.43h10.038l1.642 5.43h8.681zm20.278 0v-10.983h-9.174v10.983h-8.225V96.454h8.225v10.406h9.174V96.454h8.228v28.382h-8.228zm22.824-17.976h-1.441V96.454h-8.225v28.382h8.225v-10.983h1.194l7.611 10.983h9.499l-10.283-14.849 9.462-13.533h-8.678l-7.364 10.406z" fill="#E30611"/></svg>