<svg width="370" height="370" viewBox="0 0 370 370" fill="none" xmlns="http://www.w3.org/2000/svg">
<path d="M156.479 256.688C156.479 246.667 152.625 237.417 145.688 229.708L97.8958 181.917C95.5833 179.604 91.7292 178.833 88.6458 179.604C85.5625 180.375 82.4792 183.458 81.7083 187.312C80.1667 195.021 76.3125 211.979 80.1667 225.854L80.9375 227.396L97.8958 244.354L92.5 245.125C84.7917 245.125 77.8542 242.042 72.4583 236.646L52.4167 216.604V169.583C52.4167 155.708 43.9375 143.375 31.6042 137.979C25.4375 135.667 18.5 134.125 12.3333 134.125H4.625V228.167C4.625 235.875 7.70833 242.813 13.1042 248.208L68.6042 303.708V306.021H47.7917V364.604H174.208V306.021H156.479V256.688ZM23.125 238.188C20.8125 235.875 19.2708 232.792 19.2708 228.938V151.083C20.8125 151.854 23.125 151.854 24.6667 152.625C31.6042 155.708 36.2292 162.646 36.2292 169.583V223.542L60.8958 248.208C69.375 256.688 80.9375 261.313 92.5 261.313L111.771 258.229C114.854 257.458 117.938 255.146 118.708 252.063C119.479 248.979 118.708 245.125 116.396 242.813L93.2708 219.688C91.7292 213.521 92.5 206.583 93.2708 200.417L133.354 240.5C137.979 245.125 140.292 250.521 140.292 256.688V307.563H82.4792V305.25C82.4792 300.625 80.9375 296.771 77.8542 293.688L23.125 238.188ZM158.021 322.979V350.729H63.2083V322.979H67.8333H156.479H158.021ZM339.167 138.75C326.833 144.146 318.354 156.479 318.354 170.354V217.375L298.313 237.417C292.917 242.812 285.979 245.896 278.271 245.896L272.875 245.125L289.833 228.167L290.604 226.625C294.458 211.979 291.375 195.792 289.063 187.312C288.292 184.229 285.979 181.146 282.125 180.375C279.042 179.604 275.188 180.375 272.875 182.688L225.083 230.479C218.146 237.417 214.292 247.438 214.292 257.458V308.333H196.563V366.917H322.979V308.333H302.938V305.25L358.438 249.75C363.833 244.354 366.917 237.417 366.917 229.708V134.896H359.208C351.5 134.896 345.333 136.438 339.167 138.75ZM306.792 322.979V350.729H211.979V322.979H214.292H302.938H306.792ZM350.729 228.938C350.729 232.792 349.188 235.875 346.875 238.188L291.375 293.688C288.292 296.771 286.75 300.625 286.75 305.25V307.563H228.938V256.688C228.938 250.521 231.25 245.125 235.875 240.5L275.958 200.417C276.729 206.583 277.5 213.521 275.958 219.688L252.833 242.813C250.521 245.125 249.75 248.979 250.521 252.063C251.292 255.146 254.375 257.458 257.458 258.229L275.958 261.313H277.5C289.833 261.313 300.625 256.688 309.104 248.208L333.771 223.542V170.354C333.771 162.646 338.396 155.708 345.333 153.396C346.875 152.625 349.188 151.854 350.729 151.854V228.938ZM187.312 54.7292C159.562 53.1875 136.438 74.7708 134.896 102.521C134.125 115.625 138.75 128.729 148 138.75C157.25 148.771 169.583 154.167 182.688 154.938C183.458 154.938 184.229 154.938 185 154.938C211.208 154.938 233.563 134.125 235.104 107.146C236.646 79.3958 215.063 56.2708 187.312 54.7292ZM183.458 139.521C174.208 138.75 165.729 134.896 159.563 127.958C153.396 121.021 150.313 112.542 150.313 103.292C151.083 84.7917 166.5 70.1458 185 70.1458C185.771 70.1458 186.542 70.1458 186.542 70.1458C205.813 70.9167 220.458 87.1042 219.688 106.375C218.917 125.646 202.729 140.292 183.458 139.521Z" fill="white" fill-opacity="0.5"/>
<path d="M285.979 121.021V87.1042L265.937 82.4792C264.396 75.5417 261.312 69.375 257.458 62.4375L268.25 44.7083L243.583 20.8125L225.854 31.6042C219.687 27.75 212.75 25.4375 205.812 23.8958L201.187 3.85417H167.271L162.646 23.8958C155.708 25.4375 149.542 28.5208 142.604 32.375L124.875 21.5833L101.75 46.25L112.542 63.9792C108.687 70.1458 106.375 77.0833 104.062 84.0208L84.0208 88.6458V122.562L104.062 127.188C105.604 134.125 108.687 140.292 112.542 147.229L101.75 164.958L126.417 188.854L144.146 178.062C150.312 181.917 157.25 184.229 164.187 185.771L168.812 205.812H202.729L207.354 185.771C214.292 184.229 220.458 181.146 227.396 177.292L245.125 188.083L269.021 163.417L258.229 145.688C262.083 139.521 264.396 132.583 265.937 125.646L285.979 121.021ZM252.833 113.312L252.062 117.938C250.521 126.417 247.437 134.125 242.812 141.833L240.5 145.688L249.75 161.104L242.812 168.042L227.396 158.792L223.542 161.875C216.604 166.5 208.125 170.354 200.417 171.896L195.792 172.667L191.937 190.396H181.917L177.292 172.667L172.667 171.896C164.187 170.354 156.479 167.271 148.771 162.646L144.917 160.333L129.5 169.583L121.792 161.875L131.042 146.458L127.958 142.604C123.333 135.667 119.479 127.188 117.937 119.479L117.167 114.854L99.4375 111V100.979L117.167 96.3542L117.937 91.7292C119.479 83.25 122.562 75.5417 127.187 67.8333L129.5 63.9792L120.25 48.5625L127.187 41.625L142.604 50.875L146.458 47.7917C153.396 43.1667 161.875 39.3125 169.583 37.7708L174.208 37L178.062 19.2708H188.083L192.708 37L197.333 37.7708C205.812 39.3125 213.521 42.3958 221.229 47.0208L225.083 49.3333L240.5 40.0833L247.437 47.0208L238.187 62.4375L241.271 66.2917C245.896 73.2292 249.75 81.7083 251.292 89.4167L252.062 94.0417L269.792 97.8958V107.917L252.833 113.312Z" fill="white" fill-opacity="0.5"/>
</svg>
