<svg width="30" height="30" viewBox="0 0 30 30" fill="none" xmlns="http://www.w3.org/2000/svg">
<g clip-path="url(#clip0_1_4)">
<path d="M25.6088 4.38937C23.1576 1.95581 19.9448 0.438166 16.5083 0.0905215C13.0718 -0.257123 9.62015 0.586334 6.73126 2.47968C5.04115 3.5948 3.59481 5.04114 2.47969 6.73124C0.58346 9.61702 -0.259909 13.0683 0.0917376 16.5034C0.443384 19.9385 1.96854 23.1473 4.41015 25.589C6.85176 28.0307 10.0605 29.556 13.4956 29.9078C16.9306 30.2596 20.382 29.4164 23.2678 27.5203C24.9579 26.4052 26.4043 24.9588 27.5194 23.2687C29.4134 20.3797 30.2572 16.9275 29.9094 13.4905C29.5616 10.0535 28.0432 6.84037 25.6088 4.38937ZM24.2813 5.71874C26.2713 7.72288 27.5657 10.3128 27.9739 13.1075C28.3821 15.9022 27.8827 18.7541 26.5491 21.2437L29.5 18.8034L29.8951 13.3554L25.6088 4.38937L16.5083 0.0905215L10 1L8.76282 3.45375C11.2508 2.1188 14.1018 1.61835 16.8957 2.02613C19.6896 2.43392 22.2786 3.72837 24.2813 5.71874ZM5.71876 24.2812C3.72948 22.2774 2.43548 19.6884 2.02693 16.8945C1.61839 14.1007 2.11686 11.2495 3.44907 8.75999L0.560483 10.9601L0.0917376 16.5034L4.41015 25.589L13.4956 29.9078L20 29.1375L21.2409 26.5509C18.7513 27.8831 15.8999 28.3815 13.106 27.973C10.312 27.5644 7.72278 26.2705 5.71876 24.2812ZM22.8497 25.5L4.49344 7.15312C4.86655 6.64591 5.27607 6.16652 5.71876 5.71874C6.16748 5.27838 6.64748 4.87107 7.15501 4.5L25.5056 22.8469C25.1331 23.3543 24.7239 23.8337 24.2813 24.2812C23.8336 24.7237 23.3546 25.1332 22.8478 25.5066L22.8497 25.5Z" fill="white"/>
</g>
<defs>
<clipPath id="clip0_1_4">
<rect width="30" height="30" fill="white"/>
</clipPath>
</defs>
</svg>
