<svg width="180" height="72" viewBox="0 0 180 72" fill="none" xmlns="http://www.w3.org/2000/svg">
<path fill-rule="evenodd" clip-rule="evenodd" d="M171.788 33.4038L179.282 25.138H173.7L167.562 32.0158V25.138H163.121V42.5023H167.562V35.1928L174.131 42.5023H179.868L171.788 33.4038Z" fill="#F03024"/>
<path fill-rule="evenodd" clip-rule="evenodd" d="M155.289 31.6149H149.152V25.1384H144.71V42.5024H149.152V35.6554H155.289V42.5024H159.73V25.1384H155.289V31.6149Z" fill="#F03024"/>
<path fill-rule="evenodd" clip-rule="evenodd" d="M26.3708 34.545C26.2646 37.7825 25.8466 38.4311 24.0269 38.4311V42.5024H24.7051C29.2445 42.5024 30.3363 40.1581 30.5037 34.946L30.689 29.1785H34.9448V42.5024H39.3866V25.1384H26.6793L26.3708 34.545Z" fill="#F03024"/>
<path fill-rule="evenodd" clip-rule="evenodd" d="M47.2177 30.4122H50.4251C54.6505 30.4122 57.0564 32.5713 57.0564 36.3953C57.0564 39.3567 55.3291 42.5025 50.4867 42.5025H42.7762V25.1381H47.2177V30.4122ZM47.2172 38.6781H50.0854C51.6583 38.6781 52.5526 37.9686 52.5526 36.3953C52.5526 34.9461 51.6275 34.2674 50.0854 34.2674H47.2172V38.6781Z" fill="#F03024"/>
<path fill-rule="evenodd" clip-rule="evenodd" d="M71.5216 24.7371V18.291H67.0806V24.7371C61.9918 25.1688 58.5679 28.7776 58.5679 33.8048C58.5679 38.8628 61.9918 42.4716 67.0806 42.9033V49.4418H71.5216V42.9033C76.6105 42.5024 80.0344 38.8628 80.0344 33.8048C80.0344 28.7464 76.6105 25.138 71.5216 24.7371ZM67.0801 38.7087C64.6125 38.3694 63.0704 36.5188 63.0704 33.8048C63.0704 31.0907 64.6125 29.2401 67.0801 28.9008V38.7087ZM75.5308 33.8048C75.5308 31.0907 73.9887 29.2401 71.5211 28.9008V38.7087C73.9887 38.3694 75.5308 36.5188 75.5308 33.8048Z" fill="#F03024"/>
<path fill-rule="evenodd" clip-rule="evenodd" d="M96.6887 31.3373V37.1668C96.6887 38.1227 96.9972 38.4928 97.7991 38.4928V42.5025H96.257C94.5608 42.5025 93.2652 41.8547 92.6794 40.6827C92.0217 41.6528 90.5172 42.9342 87.8059 42.9342C84.1094 42.9342 81.545 40.4666 81.545 36.8583C81.545 33.4036 83.889 31.3373 87.8371 31.3373H92.2477C92.2477 29.2402 91.1369 28.4384 89.41 28.4384C87.3129 28.4384 86.6343 29.5483 86.4798 30.1961H81.9768C82.1929 27.2356 84.6909 24.3975 89.41 24.3975C93.9746 24.3975 96.6887 27.0811 96.6887 31.3373ZM88.9777 39.1714C90.8283 39.1714 92.2471 38.0302 92.2471 36.0256V34.8844H88.7C87.4972 34.8844 86.1092 35.1617 86.1092 36.8583C86.1092 38.5856 87.3736 39.1714 88.9777 39.1714Z" fill="#F03024"/>
<path fill-rule="evenodd" clip-rule="evenodd" d="M110.752 27.6053H115.718C121.054 27.6053 124.107 30.3814 124.107 34.9768C124.107 39.85 121.054 42.5024 115.718 42.5024H106.095V18.2907H122.257V22.7013H110.752V27.6053ZM110.752 38.1226H115.502C117.969 38.1226 119.357 37.0435 119.357 34.9768C119.357 32.9722 117.969 31.831 115.502 31.831H110.752V38.1226Z" fill="#F03024"/>
<path fill-rule="evenodd" clip-rule="evenodd" d="M141.102 31.3373V37.1668C141.102 38.1227 141.41 38.4928 142.212 38.4928V42.5025H140.671C138.974 42.5025 137.678 41.8547 137.093 40.6827C136.435 41.6528 134.93 42.9342 132.219 42.9342C128.523 42.9342 125.958 40.4666 125.958 36.8583C125.958 33.4036 128.302 31.3373 132.25 31.3373H136.661C136.661 29.2402 135.55 28.4384 133.823 28.4384C131.726 28.4384 131.047 29.5483 130.893 30.1961H126.39C126.606 27.2356 129.104 24.3975 133.823 24.3975C138.388 24.3975 141.102 27.0811 141.102 31.3373ZM133.391 39.1714C135.242 39.1714 136.66 38.0302 136.66 36.0256V34.8844H133.113C131.91 34.8844 130.522 35.1617 130.522 36.8583C130.522 38.5856 131.787 39.1714 133.391 39.1714Z" fill="#F03024"/>
<path fill-rule="evenodd" clip-rule="evenodd" d="M0 54.8395H23.7488V49.9043H0V54.8395Z" fill="#F03024"/>
<path fill-rule="evenodd" clip-rule="evenodd" d="M12.0601 18C14.7339 18 15.5144 19.595 16.1915 21.6143L23.1941 42.5021H18.0124L16.4395 37.5369H7.06372L5.36718 42.5021H0.494019L7.84267 21.6143C8.55526 19.5887 9.38556 18 12.0601 18ZM11.8139 23.4416L8.48279 33.3419H15.0833L11.9371 23.4416H11.8139Z" fill="#F03024"/>
</svg>
